<?xml version="1.0"?>
<svg xmlns="http://www.w3.org/2000/svg" xmlns:xlink="http://www.w3.org/1999/xlink" xmlns:svgjs="http://svgjs.com/svgjs" version="1.1" width="512" height="512" x="0" y="0" viewBox="0 0 512 512" style="enable-background:new 0 0 512 512" xml:space="preserve" class=""><g><linearGradient xmlns="http://www.w3.org/2000/svg" id="SVGID_1_" gradientTransform="matrix(1 0 0 -1 -561.6 -11906.99)" gradientUnits="userSpaceOnUse" x1="1068.088" x2="528.034" y1="-12018.263" y2="-12330.295"><stop stop-opacity="1" stop-color="#d99379" offset="0"/><stop stop-opacity="1" stop-color="#a65e44" offset="1"/></linearGradient><g xmlns="http://www.w3.org/2000/svg"><g><path d="m361.23 275.692c-56.758 0-102.769-46.011-102.769-102.769v-65.231c0-59.477-48.216-107.692-107.693-107.692s-107.692 48.215-107.692 107.692v86.154c0 175.712 142.442 318.154 318.154 318.154 59.477 0 107.692-48.215 107.692-107.692v-20.923c.001-59.477-48.214-107.693-107.692-107.693z" fill="url(#SVGID_1_)" data-original="url(#SVGID_1_)" style=""/><g><g><path d="m452.04 300.034v-170.711c0-8.29-6.71-15-15-15h-362.081c-8.29 0-15 6.71-15 15v170.711c-8.947.912-15.96 8.822-15.96 18.032v83.901c0 37.538 30.431 67.969 67.969 67.969h40.729c37.538 0 67.969-30.431 67.969-67.969v-53.705h70.667v53.705c0 37.538 30.431 67.969 67.969 67.969h40.729c37.538 0 67.969-30.431 67.969-67.969v-83.901c0-9.21-7.013-17.119-15.96-18.032z" fill="#020659" opacity=".1" data-original="#2626bc" style="" class=""/><g><g><path d="m452.04 102.323v203.94c0 8.29-6.71 15-15 15h-362.081c-8.29 0-15-6.71-15-15v-203.94c0-8.29 6.71-15 15-15h362.08c8.29 0 15.001 6.71 15.001 15z" fill="#ffffff" data-original="#ffffff" style="" class=""/></g><g><path d="m255.999 90.538v189.42c0 5.52-4.48 10-10 10h-143c-5.52 0-10-4.48-10-10v-204.42c0-5.52 4.48-10 10-10h128c13.81 0 25 11.19 25 25z" fill="#ffffff" data-original="#ffffff" style="" class=""/><path d="m120.37 267h102.129c2.761 0 5-2.239 5-5v-47.588c0-2.761-2.239-5-5-5h-102.129c-2.761 0-5 2.239-5 5v47.588c0 2.761 2.238 5 5 5z" fill="#49a657" data-original="#6583fe" style="" class=""/><path d="m265.999 289.958h142.999c5.523 0 10-4.477 10-10v-204.418c0-5.523-4.477-10-10-10h-127.999c-13.807 0-25 11.193-25 25v189.418c0 5.523 4.477 10 10 10z" fill="#ffffff" data-original="#ffffff" style="" class=""/><path d="m418.999 179v-103.46c0-5.523-4.477-10-10-10h-128c-13.807 0-25 11.193-25 25v88.46z" fill="#49a657" data-original="#6583fe" style="" class=""/><g><g><g><path d="m327.779 199.909h-43.52c-2.762 0-5-2.239-5-5s2.238-5 5-5h43.52c2.762 0 5 2.239 5 5s-2.239 5-5 5z" fill="#020659" data-original="#2626bc" style="" class=""/></g><g><path d="m327.779 219.412h-43.52c-2.762 0-5-2.239-5-5s2.238-5 5-5h43.52c2.762 0 5 2.239 5 5s-2.239 5-5 5z" fill="#020659" data-original="#2626bc" style="" class=""/></g><g><path d="m327.779 238.915h-43.52c-2.762 0-5-2.239-5-5s2.238-5 5-5h43.52c2.762 0 5 2.239 5 5s-2.239 5-5 5z" fill="#020659" data-original="#2626bc" style="" class=""/></g></g><g><g><path d="m390.74 199.909h-43.52c-2.762 0-5-2.239-5-5s2.238-5 5-5h43.52c2.762 0 5 2.239 5 5s-2.239 5-5 5z" fill="#020659" data-original="#2626bc" style="" class=""/></g><g><path d="m390.74 219.412h-43.52c-2.762 0-5-2.239-5-5s2.238-5 5-5h43.52c2.762 0 5 2.239 5 5s-2.239 5-5 5z" fill="#020659" data-original="#2626bc" style="" class=""/></g><g><path d="m390.74 238.915h-43.52c-2.762 0-5-2.239-5-5s2.238-5 5-5h43.52c2.762 0 5 2.239 5 5s-2.239 5-5 5z" fill="#020659" data-original="#2626bc" style="" class=""/></g></g></g></g></g><g fill="#6583fe"><path d="m272.332 419.161h-3v-3c0-2.762-2.238-5-5-5s-5 2.238-5 5v3h-3c-2.761 0-5 2.238-5 5s2.239 5 5 5h3v3c0 2.762 2.238 5 5 5s5-2.238 5-5v-3h3c2.762 0 5-2.238 5-5s-2.238-5-5-5z" fill="#49a657" data-original="#6583fe" style="" class=""/><path d="m460.04 46.816h-3v-3c0-2.762-2.238-5-5-5s-5 2.238-5 5v3h-3c-2.762 0-5 2.238-5 5s2.238 5 5 5h3v3c0 2.762 2.238 5 5 5s5-2.238 5-5v-3h3c2.762 0 5-2.238 5-5s-2.238-5-5-5z" fill="#49a657" data-original="#6583fe" style="" class=""/><path d="m303 468.494c-1.279 0-2.56-.488-3.535-1.465l-4.465-4.464-4.465 4.464c-1.951 1.953-5.119 1.953-7.07 0-1.953-1.952-1.953-5.118 0-7.07l8-8c1.951-1.953 5.119-1.953 7.07 0l8 8c1.953 1.952 1.953 5.118 0 7.07-.975.977-2.256 1.465-3.535 1.465z" fill="#49a657" data-original="#6583fe" style="" class=""/><path d="m157.999 482.494c-1.28 0-2.559-.488-3.536-1.465l-4.464-4.464-4.464 4.464c-1.953 1.953-5.118 1.953-7.071 0-1.953-1.952-1.953-5.118 0-7.07l8-8c1.953-1.953 5.118-1.953 7.071 0l8 8c1.953 1.952 1.953 5.118 0 7.07-.977.977-2.256 1.465-3.536 1.465z" fill="#49a657" data-original="#6583fe" style="" class=""/><path d="m263.999 44.816c-1.279 0-2.56-.488-3.535-1.465l-4.465-4.463-4.464 4.464c-1.953 1.953-5.118 1.953-7.071 0-1.953-1.952-1.953-5.118 0-7.07l8-8c1.953-1.953 5.12-1.953 7.071 0l8 8c1.953 1.952 1.953 5.118 0 7.07-.976.976-2.257 1.464-3.536 1.464z" fill="#49a657" data-original="#6583fe" style="" class=""/></g><g><g><g><g><path d="m291.332 321.27v53.698c0 37.538 30.431 67.969 67.969 67.969h40.729c37.538 0 67.969-30.431 67.969-67.969v-83.902c0-9.902-8.103-18.312-18.004-18.126-9.601.18-17.329 8.019-17.329 17.663v-11.333c0-9.757-7.91-17.667-17.667-17.667s-17.667 7.91-17.667 17.667v-7.333c0-9.757-7.91-17.667-17.667-17.667s-17.667 7.91-17.667 17.667v-46.537c0-9.902-8.103-18.312-18.004-18.126-9.601.18-17.329 8.019-17.329 17.664v96.333z" fill="#ffffff" data-original="#ffffff" style="" class=""/></g></g></g><g><g><g><path d="m220.666 321.27v53.698c0 37.538-30.431 67.969-67.969 67.969h-40.729c-37.538-.001-67.969-30.431-67.969-67.969v-83.902c0-9.902 8.103-18.312 18.004-18.126 9.601.18 17.329 8.019 17.329 17.663v-11.333c0-9.757 7.91-17.667 17.667-17.667s17.667 7.91 17.667 17.667v-7.333c0-9.757 7.91-17.667 17.667-17.667s17.667 7.91 17.667 17.667v-46.537c0-9.902 8.103-18.312 18.004-18.126 9.601.18 17.329 8.019 17.329 17.664v96.333z" fill="#ffffff" data-original="#ffffff" style="" class=""/><path d="m465.984 274.424c-2.59-2.541-5.636-4.385-8.941-5.445v-166.654c0-11.028-8.972-20-20-20h-13.045v-6.786c0-8.271-6.729-15-15-15h-34.698c-2.762 0-5 2.238-5 5s2.238 5 5 5h34.698c2.757 0 5 2.243 5 5v181.111c-5.294.233-10.127 2.265-13.874 5.531-3.653-7.629-11.45-12.911-20.458-12.911-4.688 0-9.049 1.431-12.667 3.878v-27.748c0-6.2-2.557-12.266-7.014-16.641-4.375-4.294-10.086-6.599-16.084-6.485-12.261.23-22.235 10.397-22.235 22.663v60.021h-55.667c-2.757 0-5-2.243-5-5v-189.419c0-11.028 8.972-20 20-20h62.699c2.762 0 5-2.238 5-5s-2.238-5-5-5h-62.699c-10.426 0-19.622 5.349-25.001 13.443-5.379-8.094-14.575-13.442-25-13.442h-127.999c-8.271 0-15 6.729-15 15v6.785h-13.044c-11.028 0-20 8.972-20 20v166.681c-3.301 1.059-6.356 2.88-8.941 5.418-4.458 4.375-7.015 10.441-7.015 16.642v83.901c0 40.235 32.733 72.969 72.969 72.969h40.729c40.235 0 72.969-32.733 72.969-72.969v-48.697h60.667v48.698c0 40.235 32.733 72.969 72.969 72.969h40.729c40.235 0 72.969-32.733 72.969-72.969v-83.901c0-6.202-2.557-12.268-7.016-16.643zm-28.94-182.099c5.514 0 10 4.486 10 10v165.87c-3.854.57-7.408 2.108-10.386 4.38-1.963-6.337-6.637-11.492-12.659-14.107v-166.143zm-171.045 202.633h55.667v21.312h-131.334v-21.312h55.666c3.844 0 7.343-1.466 10-3.852 2.658 2.386 6.157 3.852 10.001 3.852zm-191.044-202.633h13.044v166.142c-6.022 2.616-10.695 7.772-12.658 14.108-2.978-2.271-6.531-3.81-10.386-4.38v-165.87c0-5.513 4.486-10 10-10zm140.711 282.643c0 34.721-28.248 62.969-62.969 62.969h-40.729c-34.721 0-62.969-28.249-62.969-62.969v-83.901c0-3.534 1.465-6.999 4.02-9.506 2.387-2.343 5.456-3.624 8.665-3.624.075 0 .15.001.226.002 6.851.128 12.423 5.81 12.423 12.665v30c0 2.762 2.239 5 5 5s5-2.238 5-5v-41.334c0-6.984 5.682-12.666 12.667-12.666s12.667 5.682 12.667 12.666v41.334c0 2.762 2.239 5 5 5s5-2.238 5-5v-48.667c0-6.984 5.682-12.667 12.667-12.667 6.984 0 12.667 5.683 12.667 12.667v48.667c0 2.762 2.239 5 5 5s5-2.238 5-5v-95.204c0-3.533 1.465-6.998 4.019-9.505 2.443-2.397 5.6-3.658 8.891-3.622 6.851.128 12.423 5.81 12.423 12.664v34.421c0 2.762 2.239 5 5 5s5-2.238 5-5v-34.421c0-12.267-9.975-22.433-22.236-22.662-6.013-.152-11.709 2.189-16.083 6.483-4.458 4.375-7.015 10.44-7.015 16.642v27.748c-3.619-2.447-7.979-3.878-12.667-3.878-9.008 0-16.806 5.282-20.458 12.911-3.749-3.268-8.579-5.324-13.875-5.556v-181.085c0-2.757 2.243-5 5-5h127.999c11.028 0 20 8.972 20 20v189.418c0 2.757-2.243 5-5 5h-60.666c-2.761 0-5 2.238-5 5v77.144c0 2.762 2.239 5 5 5s5-2.238 5-5v-40.832h25.333zm247.334 0c0 34.721-28.248 62.969-62.969 62.969h-40.729c-34.721 0-62.969-28.248-62.969-62.969v-48.698h25.334v40.832c0 2.762 2.238 5 5 5s5-2.238 5-5v-142.165c0-6.854 5.573-12.536 12.422-12.665.075-.001.15-.002.226-.002 3.21 0 6.279 1.282 8.667 3.625 2.554 2.507 4.019 5.972 4.019 9.505v95.204c0 2.762 2.238 5 5 5s5-2.238 5-5v-48.667c0-6.984 5.683-12.667 12.667-12.667s12.666 5.683 12.666 12.667v48.667c0 2.762 2.238 5 5 5s5-2.238 5-5v-41.334c0-6.984 5.683-12.666 12.667-12.666s12.667 5.682 12.667 12.666v41.334c0 2.762 2.238 5 5 5s5-2.238 5-5v-30c0-6.855 5.573-12.537 12.423-12.665 3.297-.025 6.448 1.225 8.891 3.622 2.555 2.507 4.02 5.972 4.02 9.506v83.901z" fill="#020659" data-original="#2626bc" style="" class=""/></g></g></g></g></g><g><path d="m326.827 113.908v24.317c0 2.316 2.513 3.758 4.513 2.591l20.825-12.159c1.983-1.158 1.983-4.024 0-5.182l-20.825-12.159c-2-1.167-4.513.276-4.513 2.592z" fill="#ffffff" data-original="#ffffff" style="" class=""/></g><g fill="#2626bc"><path d="m174.499 192.091c-28.338 0-51.392-23.055-51.392-51.393s23.054-51.393 51.392-51.393 51.392 23.055 51.392 51.393-23.054 51.393-51.392 51.393zm0-92.785c-22.824 0-41.392 18.568-41.392 41.393s18.568 41.393 41.392 41.393 41.392-18.568 41.392-41.393-18.568-41.393-41.392-41.393z" fill="#020659" data-original="#2626bc" style="" class=""/><path d="m174.499 192.091c-16.433 0-25.3-26.479-25.3-51.393s8.867-51.393 25.3-51.393 25.3 26.479 25.3 51.393-8.867 51.393-25.3 51.393zm0-92.785c-6.238 0-15.3 16.125-15.3 41.393 0 11.718 1.963 22.655 5.526 30.8 2.859 6.534 6.604 10.593 9.774 10.593 6.238 0 15.3-16.125 15.3-41.393 0-11.718-1.963-22.655-5.526-30.8-2.859-6.535-6.604-10.593-9.774-10.593z" fill="#020659" data-original="#2626bc" style="" class=""/><g><path d="m174.499 131.066c-16.36 0-31.757-3.646-41.187-9.754-2.318-1.501-2.98-4.597-1.479-6.914s4.597-2.982 6.915-1.479c7.877 5.101 21.242 8.146 35.751 8.146 14.5 0 28.301-3.188 36.017-8.321 2.298-1.529 5.402-.906 6.933 1.394 1.529 2.3.905 5.403-1.394 6.933-9.409 6.259-24.944 9.995-41.556 9.995z" fill="#f2cd88" data-original="#000000" style="" class=""/><path d="m135.603 169.566c-1.609 0-3.19-.776-4.155-2.213-1.54-2.292-.93-5.398 1.362-6.938 9.4-6.314 24.985-10.085 41.689-10.085 16.36 0 31.757 3.646 41.187 9.754 2.318 1.501 2.98 4.597 1.479 6.914-1.5 2.318-4.596 2.983-6.915 1.479-7.877-5.101-21.242-8.146-35.751-8.146-14.575 0-28.413 3.213-36.113 8.386-.855.574-1.825.849-2.783.849z" fill="#f2cd88" data-original="#000000" style="" class=""/></g></g></g></g></g></g></svg>
