<?xml version="1.0"?>
<svg xmlns="http://www.w3.org/2000/svg" xmlns:xlink="http://www.w3.org/1999/xlink" xmlns:svgjs="http://svgjs.com/svgjs" version="1.1" width="512" height="512" x="0" y="0" viewBox="0 0 512 512" style="enable-background:new 0 0 512 512" xml:space="preserve" class=""><g><linearGradient xmlns="http://www.w3.org/2000/svg" id="SVGID_1_" gradientUnits="userSpaceOnUse" x1="15.637" x2="496.377" y1="256" y2="256"><stop stop-opacity="1" stop-color="#d99379" offset="0"/><stop stop-opacity="1" stop-color="#a65e44" offset="1"/></linearGradient><g xmlns="http://www.w3.org/2000/svg"><g><g><path d="m20.729 179.563c26.255 85.007 107.775 89.005 182.131 93.553 244.867 14.978-63.002 218.186 146.697 238.304 77.136 7.4 157.787-56.956 145.589-140.291-11.106-75.878-121.152-121.073-121.207-191.979-.043-55.945 103.86-96.409 36.272-156.553-60.248-53.612-442.87-15.888-389.482 156.966z" fill="url(#SVGID_1_)" data-original="url(#SVGID_1_)" style=""/></g><g><g><g opacity=".1"><g><g><path d="m343.107 385.595c-10.179 0-15.463-3.395-20.124-6.389-4.177-2.684-7.476-4.803-14.719-4.803s-10.542 2.119-14.719 4.803c-4.661 2.994-9.945 6.389-20.124 6.389-10.178 0-15.461-3.395-20.122-6.39-4.176-2.683-7.474-4.802-14.715-4.802-7.242 0-10.541 2.119-14.718 4.803-4.661 2.994-9.944 6.389-20.121 6.389-10.178 0-15.46-3.395-20.122-6.389-4.176-2.684-7.475-4.803-14.716-4.803-2.762 0-5-2.238-5-5s2.238-5 5-5c10.178 0 15.46 3.395 20.122 6.389 4.176 2.684 7.475 4.803 14.716 4.803s10.54-2.119 14.716-4.802c4.662-2.995 9.945-6.39 20.123-6.39 10.177 0 15.46 3.395 20.121 6.389 4.176 2.684 7.474 4.803 14.716 4.803 7.243 0 10.543-2.119 14.72-4.803 4.661-2.994 9.945-6.389 20.123-6.389s15.462 3.395 20.123 6.389c4.177 2.684 7.477 4.803 14.72 4.803 2.762 0 5 2.238 5 5 0 2.761-2.239 5-5 5z" fill="#020659" data-original="#2626bc" style=""/></g><g><g><path d="m343.107 357.615c-10.179 0-15.463-3.395-20.124-6.389-4.177-2.684-7.476-4.803-14.719-4.803s-10.542 2.119-14.719 4.803c-4.661 2.994-9.945 6.389-20.124 6.389-10.178 0-15.461-3.395-20.122-6.39-4.176-2.683-7.474-4.802-14.715-4.802-7.242 0-10.541 2.119-14.718 4.803-4.661 2.994-9.944 6.389-20.121 6.389-10.178 0-15.46-3.395-20.122-6.389-4.176-2.684-7.475-4.803-14.716-4.803-2.762 0-5-2.238-5-5s2.238-5 5-5c10.178 0 15.46 3.395 20.122 6.389 4.176 2.684 7.475 4.803 14.716 4.803s10.54-2.119 14.716-4.802c4.662-2.995 9.945-6.39 20.123-6.39 10.177 0 15.46 3.395 20.121 6.389 4.176 2.684 7.474 4.803 14.716 4.803 7.243 0 10.543-2.119 14.72-4.803 4.661-2.994 9.945-6.389 20.123-6.389s15.462 3.395 20.123 6.389c4.177 2.684 7.477 4.803 14.72 4.803 2.762 0 5 2.238 5 5s-2.239 5-5 5z" fill="#020659" data-original="#2626bc" style=""/></g><g><path d="m343.107 413.573c-10.179 0-15.463-3.395-20.124-6.389-4.177-2.684-7.476-4.803-14.719-4.803s-10.542 2.119-14.719 4.803c-4.661 2.994-9.945 6.389-20.124 6.389-10.178 0-15.461-3.395-20.122-6.39-4.176-2.683-7.474-4.802-14.715-4.802-7.242 0-10.541 2.119-14.718 4.803-4.661 2.994-9.944 6.389-20.121 6.389-10.178 0-15.46-3.395-20.122-6.389-4.176-2.684-7.475-4.803-14.716-4.803-2.762 0-5-2.238-5-5s2.238-5 5-5c10.178 0 15.46 3.395 20.122 6.389 4.176 2.684 7.475 4.803 14.716 4.803s10.54-2.119 14.716-4.802c4.662-2.995 9.945-6.39 20.123-6.39 10.177 0 15.46 3.395 20.121 6.389 4.176 2.684 7.474 4.803 14.716 4.803 7.243 0 10.543-2.119 14.72-4.803 4.661-2.994 9.945-6.389 20.123-6.389s15.462 3.395 20.123 6.389c4.177 2.684 7.477 4.803 14.72 4.803 2.762 0 5 2.238 5 5s-2.239 5-5 5z" fill="#020659" data-original="#2626bc" style=""/></g></g></g><path d="m494.734 353.646-57.718-57.718c-.259-7.722-3.283-15.451-9.401-21.57l-4.569-4.569h10.524c34.688 0 62.808-28.12 62.808-62.808s-28.12-62.808-62.808-62.808-62.808 28.12-62.808 62.808v10.524l-67.832-67.832c-6.266-6.266-16.426-6.266-22.693 0-1.587 1.587-2.769 3.425-3.552 5.385-5.474-1.645-11.654-.309-15.979 4.017-2.515 2.515-4.002 5.658-4.499 8.924h-.402c-.496-3.265-1.984-6.409-4.499-8.924-4.325-4.325-10.505-5.662-15.979-4.017-.783-1.96-1.965-3.798-3.552-5.385-2.588-2.588-5.843-4.09-9.211-4.54-4.107-16.025-18.646-27.871-35.952-27.871h-92.945c-20.497 0-37.113 16.616-37.113 37.113s16.616 37.113 37.113 37.113h73.601l-82.869 82.869c-6.119 6.119-9.143 13.847-9.402 21.57l-57.717 57.719c-9.715 9.715-9.715 25.465 0 35.18l18.912 18.913c11.247 11.246 30.014 9.195 38.565-4.216l47.138-73.93c20.174-3.084 40.119-16.293 49.422-33.634.249-.464.479-.921.72-1.383l61.736-8.195c7.471-.801 13.136-7.105 13.136-14.619 0-7.513-5.665-13.818-13.136-14.619l-48.997-.436c.251-1.656.457-3.269.62-4.831.168-1.615.38-3.22.623-4.818l65.289-65.289c2.432-2.432 6.967-2.432 9.399 0l65.289 65.289c.243 1.598.455 3.204.623 4.818.163 1.562.368 3.174.62 4.831l-48.997.436c-7.471.801-13.136 7.105-13.136 14.619s5.665 13.818 13.136 14.619l61.736 8.195c.241.461.471.919.72 1.383 9.303 17.341 29.249 30.55 49.422 33.634l47.138 73.93c8.551 13.411 27.318 15.463 38.565 4.216l18.912-18.913c9.713-9.715 9.713-25.465-.001-35.18z" fill="#020659" data-original="#2626bc" style=""/></g><g><g><path d="m213.726 167.49h-120.059c-20.497 0-37.113-16.616-37.113-37.113 0-20.497 16.616-37.113 37.113-37.113h92.946c20.497 0 37.113 16.616 37.113 37.113v27.113c0 5.522-4.477 10-10 10z" fill="#ffffff" data-original="#ffffff" style="" class=""/></g><g><g><path d="m158.586 126.048h-73.52c-2.762 0-5-2.239-5-5s2.238-5 5-5h73.52c2.762 0 5 2.239 5 5s-2.239 5-5 5z" fill="#020659" data-original="#2626bc" style=""/></g><g><path d="m188.586 144.705h-103.52c-2.762 0-5-2.239-5-5s2.238-5 5-5h103.519c2.762 0 5 2.239 5 5 .001 2.761-2.238 5-4.999 5z" fill="#020659" data-original="#2626bc" style=""/></g></g></g><g><g><g><path d="m228.614 135.076-91.584 91.584 18.88 26.505.037-.037v19.583l77.825-10.331c7.471-.801 13.136-7.105 13.136-14.619 0-7.514-5.665-13.818-13.136-14.619l-57.328-.51 74.863-74.863c6.266-6.266 6.266-16.426 0-22.693-6.266-6.266-16.426-6.266-22.693 0z" fill="#49a657" data-original="#6583fe" style="" class=""/><path d="m231.776 125.674c-6.266-6.266-16.426-6.266-22.693 0l-124.684 124.684c-6.119 6.118-9.143 13.847-9.402 21.57l-57.717 57.718c-9.715 9.715-9.715 25.465 0 35.18l18.912 18.912c11.247 11.247 30.014 9.195 38.565-4.216l47.138-73.93c20.174-3.084 40.119-16.293 49.422-33.634 9.023-16.819 12.813-31.918 14.078-44.082 2.519-24.223 13.622-46.749 30.842-63.97l15.538-15.538c6.268-6.267 6.268-16.427.001-22.694z" fill="#ffffff" data-original="#ffffff" style="" class=""/></g></g><g><g><path d="m283.399 135.076 91.584 91.584-18.88 26.505-.037-.037v19.583l-77.825-10.331c-7.471-.801-13.136-7.105-13.136-14.619 0-7.514 5.665-13.818 13.136-14.619l57.328-.51-74.863-74.863c-6.266-6.266-6.266-16.426 0-22.693 6.267-6.266 16.427-6.266 22.693 0z" fill="#49a657" data-original="#6583fe" style="" class=""/><path d="m494.734 329.646-57.718-57.718c-.259-7.722-3.283-15.451-9.401-21.57l-124.685-124.684c-6.266-6.266-16.426-6.266-22.693 0-6.266 6.267-6.266 16.426 0 22.693l15.538 15.538c17.221 17.221 28.324 39.747 30.842 63.97 1.265 12.164 5.055 27.263 14.078 44.082 9.303 17.341 29.249 30.55 49.422 33.634l47.138 73.93c8.551 13.411 27.318 15.463 38.565 4.216l18.912-18.912c9.716-9.714 9.716-25.464.002-35.179z" fill="#ffffff" data-original="#ffffff" style="" class=""/></g></g></g><g><g><g><path d="m378.636 245.79h54.933c34.688 0 62.808-28.12 62.808-62.808 0-34.688-28.12-62.808-62.808-62.808-34.688 0-62.808 28.12-62.808 62.808v54.934c.001 4.348 3.527 7.874 7.875 7.874z" fill="#ffffff" data-original="#ffffff" style="" class=""/></g></g><g fill="#2626bc"><ellipse cx="404.838" cy="182.982" rx="9.33" ry="9.33" transform="matrix(.707 -.707 .707 .707 -10.814 339.858)" fill="#020659" data-original="#2626bc" style=""/><ellipse cx="433.57" cy="182.982" rx="9.33" ry="9.33" transform="matrix(.707 -.707 .707 .707 -2.398 360.174)" fill="#020659" data-original="#2626bc" style=""/><ellipse cx="462.301" cy="182.982" rx="9.33" ry="9.33" transform="matrix(.23 -.973 .973 .23 177.999 590.875)" fill="#020659" data-original="#2626bc" style=""/></g></g></g><g fill="#6583fe"><path d="m110.241 418.978c-2.762 0-5-2.238-5-5 0-3.309-2.691-6-6-6-2.762 0-5-2.238-5-5s2.238-5 5-5c3.309 0 6-2.691 6-6 0-2.762 2.238-5 5-5s5 2.238 5 5c0 3.309 2.691 6 6 6 2.762 0 5 2.238 5 5s-2.238 5-5 5c-3.309 0-6 2.691-6 6 0 2.761-2.238 5-5 5z" fill="#49a657" data-original="#6583fe" style="" class=""/><path d="m322.905 86.622c-2.762 0-5-2.238-5-5 0-3.309-2.692-6-6.001-6-2.762 0-5-2.238-5-5s2.238-5 5-5c3.309 0 6.001-2.691 6.001-6 0-2.762 2.238-5 5-5s5 2.238 5 5c0 3.309 2.691 6 5.999 6 2.762 0 5 2.238 5 5s-2.238 5-5 5c-3.308 0-5.999 2.691-5.999 6 0 2.762-2.238 5-5 5z" fill="#49a657" data-original="#6583fe" style="" class=""/><path d="m242.481 97.179c-2.762 0-5-2.238-5-5 0-3.309-2.691-6-6-6-2.762 0-5-2.238-5-5s2.238-5 5-5c3.309 0 6-2.691 6-6 0-2.762 2.238-5 5-5s5 2.238 5 5c0 3.309 2.691 6 6 6 2.762 0 5 2.238 5 5s-2.238 5-5 5c-3.309 0-6 2.691-6 6 0 2.761-2.239 5-5 5z" fill="#49a657" data-original="#6583fe" style="" class=""/><path d="m403.302 442.025c-2.762 0-5-2.238-5-5 0-3.309-2.691-6-6-6-2.762 0-5-2.238-5-5s2.238-5 5-5c3.309 0 6-2.691 6-6 0-2.762 2.238-5 5-5s5 2.238 5 5c0 3.309 2.691 6 6 6 2.762 0 5 2.238 5 5s-2.238 5-5 5c-3.309 0-6 2.691-6 6 0 2.762-2.238 5-5 5z" fill="#49a657" data-original="#6583fe" style="" class=""/><path d="m366.174 118.622c-1.279 0-2.56-.488-3.535-1.465l-11-11c-1.953-1.952-1.953-5.118 0-7.07l11-11c1.951-1.953 5.119-1.953 7.07 0l11 11c1.953 1.952 1.953 5.118 0 7.07l-11 11c-.975.977-2.256 1.465-3.535 1.465zm-3.929-16 3.929 3.929 3.929-3.929-3.929-3.929z" fill="#49a657" data-original="#6583fe" style="" class=""/></g></g></g><g fill="#2626bc"><path d="m168.907 350.403c7.241 0 10.54 2.119 14.716 4.803 4.662 2.994 9.944 6.389 20.122 6.389 10.177 0 15.46-3.395 20.121-6.389 4.177-2.684 7.476-4.803 14.718-4.803 7.241 0 10.539 2.119 14.715 4.802 4.661 2.995 9.944 6.39 20.122 6.39 10.179 0 15.463-3.395 20.124-6.389 4.177-2.684 7.476-4.803 14.719-4.803s10.542 2.119 14.719 4.803c4.661 2.994 9.945 6.389 20.124 6.389 2.762 0 5-2.238 5-5s-2.238-5-5-5c-7.243 0-10.543-2.119-14.72-4.803-4.661-2.994-9.945-6.389-20.123-6.389s-15.462 3.395-20.123 6.389c-4.177 2.684-7.477 4.803-14.72 4.803-7.242 0-10.54-2.119-14.716-4.803-4.661-2.994-9.944-6.389-20.121-6.389-10.178 0-15.461 3.395-20.123 6.39-4.176 2.683-7.475 4.802-14.716 4.802s-10.54-2.119-14.716-4.803c-4.662-2.994-9.944-6.389-20.122-6.389-2.762 0-5 2.238-5 5s2.239 5 5 5z" fill="#020659" data-original="#2626bc" style=""/><path d="m168.907 322.424c7.241 0 10.54 2.119 14.716 4.803 4.662 2.994 9.944 6.389 20.122 6.389 10.177 0 15.46-3.395 20.121-6.389 4.177-2.684 7.476-4.803 14.718-4.803 7.241 0 10.539 2.119 14.715 4.802 4.661 2.995 9.944 6.39 20.122 6.39 10.179 0 15.463-3.395 20.124-6.389 4.177-2.684 7.476-4.803 14.719-4.803s10.542 2.119 14.719 4.803c4.661 2.994 9.945 6.389 20.124 6.389 2.762 0 5-2.238 5-5s-2.238-5-5-5c-7.243 0-10.543-2.119-14.72-4.803-4.661-2.994-9.945-6.389-20.123-6.389s-15.462 3.395-20.123 6.389c-4.177 2.684-7.477 4.803-14.72 4.803-7.242 0-10.54-2.119-14.716-4.803-4.661-2.994-9.944-6.389-20.121-6.389-10.178 0-15.461 3.395-20.123 6.39-4.176 2.683-7.475 4.802-14.716 4.802s-10.54-2.119-14.716-4.803c-4.662-2.994-9.944-6.389-20.122-6.389-2.762 0-5 2.238-5 5s2.239 5 5 5z" fill="#020659" data-original="#2626bc" style=""/><path d="m168.907 378.382c7.241 0 10.54 2.119 14.716 4.803 4.662 2.994 9.944 6.389 20.122 6.389 10.177 0 15.46-3.395 20.121-6.389 4.177-2.684 7.476-4.803 14.718-4.803 7.241 0 10.539 2.119 14.715 4.802 4.661 2.995 9.944 6.39 20.122 6.39 10.179 0 15.463-3.395 20.124-6.389 4.177-2.684 7.476-4.803 14.719-4.803s10.542 2.119 14.719 4.803c4.661 2.994 9.945 6.389 20.124 6.389 2.762 0 5-2.238 5-5s-2.238-5-5-5c-7.243 0-10.543-2.119-14.72-4.803-4.661-2.994-9.945-6.389-20.123-6.389s-15.462 3.395-20.123 6.389c-4.177 2.684-7.477 4.803-14.72 4.803-7.242 0-10.54-2.119-14.716-4.803-4.661-2.994-9.944-6.389-20.121-6.389-10.178 0-15.461 3.395-20.123 6.39-4.176 2.683-7.475 4.802-14.716 4.802s-10.54-2.119-14.716-4.803c-4.662-2.994-9.944-6.389-20.122-6.389-2.762 0-5 2.238-5 5s2.239 5 5 5z" fill="#020659" data-original="#2626bc" style=""/><path d="m441.895 269.741c-.612-6.895-3.143-13.436-7.304-18.959 36.919-.55 66.786-30.753 66.786-67.8 0-37.39-30.418-67.808-67.808-67.808-36.883 0-66.961 29.605-67.769 66.297l-59.048-59.047c-8.294-8.294-21.714-8.479-29.918-.415-1.083 1.064-2.025 2.229-2.841 3.465-6.207-.573-12.368 1.611-16.821 6.066-.412.411-.792.845-1.165 1.284-.373-.438-.753-.872-1.164-1.284-4.454-4.456-10.62-6.639-16.822-6.067-.816-1.235-1.758-2.4-2.841-3.465-2.496-2.454-5.479-4.134-8.65-5.064-5.769-17.2-21.67-28.683-39.917-28.683h-92.946c-23.222 0-42.113 18.892-42.113 42.113s18.892 42.113 42.113 42.113h61.529l-16.184 16.184c-1.953 1.952-1.953 5.118 0 7.07 1.951 1.953 5.119 1.953 7.07 0l66.249-66.248c4.429-4.428 11.532-4.587 15.836-.355 2.136 2.1 3.312 4.898 3.312 7.881 0 2.946-1.152 5.722-3.243 7.813l-15.536 15.535c-18.219 18.219-29.682 42.008-32.276 66.986-1.461 14.032-6.008 28.243-13.513 42.235-8.419 15.684-26.816 28.167-45.779 31.065-6.333.967-12.371.819-17.948-.438-2.688-.611-5.37 1.082-5.978 3.776-.608 2.693 1.083 5.37 3.776 5.978 3.654.825 7.454 1.247 11.359 1.295l-41.801 65.567c-3.257 5.107-8.577 8.414-14.599 9.073-6.019.654-11.932-1.421-16.215-5.703l-18.908-18.908c-3.754-3.755-5.821-8.746-5.821-14.055s2.067-10.3 5.821-14.055l57.709-57.709c.896-.897 1.419-2.1 1.462-3.366.231-6.847 3.055-13.317 7.946-18.218l32.814-32.814c1.953-1.952 1.953-5.118 0-7.07-1.951-1.953-5.119-1.953-7.07 0l-32.817 32.817c-6.207 6.216-9.977 14.29-10.743 22.918l-56.371 56.372c-5.644 5.643-8.751 13.144-8.751 21.125 0 7.98 3.107 15.482 8.751 21.125l18.908 18.909c5.654 5.654 13.195 8.752 21.079 8.752 1.092 0 2.191-.06 3.293-.18 9.051-.989 17.049-5.96 21.943-13.637l45.944-72.058c20.757-3.907 40.636-17.682 50.319-34.956l59.139-7.851c10.001-1.107 17.535-9.513 17.535-19.583 0-10.092-7.567-18.514-17.603-19.59-.162-.018-.325-.026-.488-.028l-43.366-.386c.087-.789.192-1.575.299-2.361l64.092-64.092c.412-.412.792-.845 1.165-1.284.373.439.753.872 1.165 1.284l64.093 64.093c.107.786.211 1.572.298 2.36l-43.367.386c-.163.002-.326.011-.488.028-10.035 1.076-17.603 9.498-17.603 19.59 0 10.07 7.534 18.477 17.535 19.583l59.093 7.845c.015.002.029.001.044.003 9.68 17.274 29.562 31.051 50.32 34.959l45.944 72.058c4.895 7.677 12.893 12.647 21.943 13.637 1.102.12 2.2.18 3.293.18 7.884 0 15.425-3.099 21.079-8.753l18.908-18.908c11.649-11.649 11.649-30.602 0-42.25zm-236.633-147.316-40.065 40.065h-71.53c-17.707 0-32.113-14.406-32.113-32.113s14.406-32.113 32.113-32.113h92.945c12.647 0 23.803 7.24 29.037 18.402-3.801.885-7.423 2.794-10.387 5.759zm36.646 125.336c0 4.971-3.727 9.118-8.669 9.648-.041.005-.083.01-.125.016l-52.556 6.977c3.898-8.841 6.715-17.754 8.421-26.657l44.478.395c4.834.627 8.451 4.724 8.451 9.621zm5.864-93.528-52.644 52.644c4.995-14.632 13.401-28.193 24.644-39.436l15.536-15.536c3.98-3.981 6.173-9.266 6.173-14.884 0-.515-.039-1.024-.075-1.533 2.379.314 4.624 1.38 6.366 3.123 2.086 2.087 3.235 4.86 3.235 7.811s-1.149 5.724-3.235 7.811zm16.47 0c-2.086-2.087-3.235-4.86-3.235-7.812 0-2.95 1.149-5.724 3.236-7.811 1.742-1.742 3.989-2.808 6.366-3.123-.036.509-.075 1.018-.075 1.533 0 5.618 2.192 10.903 6.173 14.884l15.536 15.536c11.243 11.243 19.649 24.804 24.644 39.436zm14.533 103.175c-4.942-.529-8.669-4.677-8.669-9.648 0-4.896 3.617-8.994 8.45-9.621l44.479-.395c1.706 8.902 4.523 17.815 8.421 26.657l-52.556-6.977c-.042-.006-.084-.011-.125-.016zm212.42 103.885-18.908 18.907c-4.283 4.282-10.194 6.366-16.215 5.704-6.021-.659-11.342-3.966-14.599-9.073l-41.803-65.563c3.905-.049 7.705-.47 11.36-1.295 2.693-.607 4.385-3.284 3.776-5.978-.606-2.693-3.286-4.39-5.978-3.776-5.576 1.259-11.614 1.404-17.948.438-18.963-2.898-37.36-15.381-45.778-31.062-7.506-13.994-12.053-28.205-13.513-42.236-2.596-24.979-14.059-48.768-32.277-66.986l-15.536-15.536c-2.091-2.092-3.243-4.867-3.243-7.813 0-2.982 1.177-5.781 3.312-7.881 4.305-4.233 11.407-4.072 15.836.355l66.08 66.079v42.342c0 7.099 5.775 12.874 12.874 12.874h10.836c2.762 0 5-2.238 5-5s-2.238-5-5-5h-10.836c-1.585 0-2.874-1.289-2.874-2.874v-54.934c0-31.875 25.933-57.808 57.808-57.808s57.808 25.933 57.808 57.808-25.933 57.808-57.808 57.808h-10.523c-2.022 0-3.846 1.219-4.619 3.087-.774 1.869-.346 4.02 1.084 5.449l4.564 4.561c4.895 4.903 7.718 11.374 7.949 18.221.043 1.267.565 2.47 1.462 3.366l57.709 57.709c7.749 7.748 7.749 20.357 0 28.107z" fill="#020659" data-original="#2626bc" style=""/></g></g></g></svg>
